<svg width="16" height="16" xmlns="http://www.w3.org/2000/svg" class="bi bi-upload">

 <g>
  <title>background</title>
  <rect fill="none" id="canvas_background" height="602" width="802" y="-1" x="-1"/>
 </g>
 <g>
  <title>Layer 1</title>
  <path transform="rotate(180 8.07304573059082,6.507817268371583) " id="svg_1" d="m0.57305,6.83126a0.5,0.5 0 0 1 0.5,0.5l0,3.5a1,1 0 0 0 1,1l12,0a1,1 0 0 0 1,-1l0,-3.5a0.5,0.5 0 0 1 1,0l0,3.5a2,2 0 0 1 -2,2l-12,0a2,2 0 0 1 -2,-2l0,-3.5a0.5,0.5 0 0 1 0.5,-0.5zm4.5,-3.146a0.5,0.5 0 0 0 0.707,0l2.293,-2.294l2.293,2.293a0.5,0.5 0 1 0 0.707,-0.707l-2.646,-2.646a0.5,0.5 0 0 0 -0.708,0l-2.646,2.646a0.5,0.5 0 0 0 0,0.708z" fill-rule="evenodd" fill="#fff"/>
  <path id="svg_2" d="m8,3.7531a0.5,0.5 0 0 1 0.5,0.5l0,8a0.5,0.5 0 0 1 -1,0l0,-8a0.5,0.5 0 0 1 0.5,-0.5z" fill-rule="evenodd" fill="#fff"/>
  <path id="svg_3" d="m0.5,9.97224a0.5,0.5 0 0 1 0.5,0.5l0,3.5a1,1 0 0 0 1,1l12,0a1,1 0 0 0 1,-1l0,-3.5a0.5,0.5 0 0 1 1,0l0,3.5a2,2 0 0 1 -2,2l-12,0a2,2 0 0 1 -2,-2l0,-3.5a0.5,0.5 0 0 1 0.5,-0.5zm4.5,-3.146a0.5,0.5 0 0 0 0.707,0l2.293,-2.294l2.293,2.293a0.5,0.5 0 1 0 0.707,-0.707l-2.646,-2.646a0.5,0.5 0 0 0 -0.708,0l-2.646,2.646a0.5,0.5 0 0 0 0,0.708z" fill-rule="evenodd" fill="#fff"/>
 </g>
</svg>
