<svg width="600" height="600"  viewBox="0 0 2500 1500" xmlns="http://www.w3.org/2000/svg">
 <g>
  <title>background</title>
  <rect fill="none" id="canvas_background" height="600" width="600" y="-1" x="-1"/>
 </g>

 <g>
  <title>Layer 1</title>
  <g id="svg_1">
   <g id="svg_2">
    <path transform="scale(1.0,-1.0) translate(-250, -2000)" stroke-width="0" fill="#ffffff" id="svg_3" d="M1538 250q32 -12 52 -20.5t63 -33t69 -49t48 -64t22 -83.5h-1536q0 44 22 83.5t48 64t69 49t63 33t52 20.5q36 14 114.5 27t92.5 16q82 24 96 43q6 8 7.5 57.5t-0.5 94.5l-2 45q-30 48 -44 86q-6 17 -14.5 55.5t-13.5 68.5l-5 30q-4 0 -9.5 1.5t-17.5 15.5t-16 40
q-4 27 -16.5 65.5t-12.5 64.5q0 19 6 31t12 15l6 2q-19 63 -24 202q-2 62 21 120t66 104t113 74t155 28t155 -28t113 -74t66 -104t21 -120t-8 -112.5t-11 -69.5l-5 -20q3 -1 7 -3t10.5 -14t6.5 -31q0 -21 -4 -39.5t-12 -45.5t-13 -49q-4 -26 -15 -40.5t-19 -15.5l-9 -2
q-19 -111 -33 -149q-6 -17 -17 -38.5t-19 -34.5l-8 -13q-9 -178 5 -197t96 -43q14 -3 92.5 -16t114.5 -27z"/>
     <path transform="scale(0.80,-0.80) translate(1250, -850)" stroke-width="0" fill="#ffffff" id="svg_4" d="M1799 879q0 -113 -61.5 -215.5t-165 -176.5t-247 -118t-301.5 -44q-53 0 -125 7q-171 -152 -398 -209q-43 -12 -99 -19q-14 -2 -26.5 7.5t-15.5 25.5q-2 4 -0.5 10.5t2 9t4.5 8t5.5 8t6 8t6.5 7.5q6 7 27 29.5t29.5 33t26 34.5t28 44t23.5 50.5t23 65.5
q-136 77 -214 190.5t-78 243.5q0 112 61.5 214.5t165 176.5t247 118t301.5 44q211 0 389.5 -74t282 -201.5t103.5 -277.5z M512 939q-70 0 -120.5 -50.5t-50.5 -120.5t50.5 -120.5t120.5 -50.5t120.5 50.5t50.5 120.5t-50.5 120.5t-120.5 50.5z M1536 939q-70 0 -120.5 -50.5t-50.5 -120.5t50.5 -120.5t120.5 -50.5t120.5 50.5t50.5 120.5t-50.5 120.5t-120.5 50.5zM1024 939q-70 0 -120.5 -50.5
t-50.5 -120.5t50.5 -120.5t120.5 -50.5t120.5 50.5t50.5 120.5t-50.5 120.5t-120.5 50.5z"/>
   </g>
  </g>
 </g>
</svg>
