<svg width="486.29999999999995" height="486.29999999999995" xmlns="http://www.w3.org/2000/svg">
 <g>
  <title>background</title>
  <rect fill="none" id="canvas_background" height="488.3" width="488.3" y="-1" x="-1"/>
 </g>

 <g>
  <title>Layer 1</title>
  <g id="svg_1">
   <g id="svg_2">
    <path stroke-width="0" fill="#ffffff" id="svg_3" d="m394.26019,136.8c-5.2,-30.9 -20.5,-59.1 -43.9,-80.5c-26,-23.8 -59.8,-36.9 -95,-36.9c-27.2,0 -53.7,7.8 -76.4,22.5c-18.9,12.2 -34.6,28.7 -45.7,48.1c-4.8,-0.9 -9.8,-1.4 -14.8,-1.4c-42.5,0 -77.1,34.6 -77.1,77.1c0,5.5 0.6,10.8 1.6,16c-27.5,20 -44.2,52.2 -44.2,86.5c0,27.7 10.3,54.6 29.1,75.9c19.3,21.8 44.8,34.7 72,36.2c0.3,0 0.5,0 0.8,0c6.68984,0 13.1,-6 13.1,-13.5c0.323,-5.21942 -5.34917,-13.55633 -12.7,-13.5c-40.9,-2.5 -75.3,-41.4 -75.3,-85.2c0,-28.3 15.2,-54.7 39.7,-69c5.7,-3.3 8.1,-10.2 5.9,-16.4c-2,-5.4 -3,-11.1 -3,-17.2c0,-27.6 22.5,-50.1 50.1,-50.1c5.9,0 11.7,1 17.1,3c6.6,2.4 13.9,-0.6 16.9,-6.9c18.7,-39.7 59.1,-65.3 103,-65.3c59,0 107.7,44.2 113.3,102.8c0.6,6.1 5.2,11 11.2,12c44.5,7.6 78.1,48.7 78.1,95.6c0,49.7 -39.1,92.9 -87.3,96.6c-6.50864,0.20576 -12.76019,6 -12.76019,13.5c0.04849,6.44672 6.85926,13.40573 13.36265,13.5c-0.10984,0.10246 0.49754,0 0.89754,0c30.5,-2.2 59,-16.2 80.2,-39.6c21.1,-23.2 32.6,-53 32.6,-84c-0.1,-56.1 -38.4,-106 -90.8,-119.8z"/>
    <path fill="#ffffff" id="svg_4" d="m237.2,281c5.3,-5.3 5.3,-13.8 0,-19.1l-71.5,-71.5c-2.5,-2.5 -6,-4 -9.5,-4s-7,1.4 -9.5,4l-71.5,71.5c-5.3,5.3 -5.3,13.8 0,19.1c2.6,2.6 6.1,4 9.5,4s6.9,-1.3 9.5,-4l48.5,-48.5l0,222.9c0,7.5 6,13.5 13.5,13.5s13.5,-6 13.5,-13.5l0,-222.9l48.5,48.5c5.2,5.3 13.7,5.3 19,0z"/>
    <path fill="#ffffff" transform="rotate(180 439.1999816894531,327.6499938964844) " id="svg_20" d="m649.2,279c5.3,-5.3 5.3,-13.8 0,-19.1l-71.5,-71.5c-2.5,-2.5 -6,-4 -9.5,-4s-7,1.4 -9.5,4l-71.5,71.5c-5.3,5.3 -5.3,13.8 0,19.1c2.6,2.6 6.1,4 9.5,4s6.9,-1.3 9.5,-4l48.5,-48.5l0,222.9c0,7.5 6,13.5 13.5,13.5s13.5,-6 13.5,-13.5l0,-222.9l48.5,48.5c5.2,5.3 13.7,5.3 19,0z"/>
   </g>
  </g>
 </g>
</svg>